<svg xmlns="http://www.w3.org/2000/svg" viewBox="0 0 250 250"><g id="레이어_2" data-name="레이어 2"><g id="레이어_1-2" data-name="레이어 1"><path d="M205,0h-187A18.07,18.07,0,0,0,0,18.07V231.93A18.07,18.07,0,0,0,18.07,250H231.93A18.07,18.07,0,0,0,250,231.93V45ZM128,210.5A37.5,37.5,0,1,1,165.5,173,37.5,37.5,0,0,1,128,210.5ZM200.5,72.83A11.66,11.66,0,0,1,188.83,84.5H62.17A11.66,11.66,0,0,1,50.5,72.83V21.17A11.66,11.66,0,0,1,62.17,9.5H188.83A11.66,11.66,0,0,1,200.5,21.17Z"/><rect x="158.5" y="17.5" width="30" height="60"/></g></g></svg>